{"scene":0,"scenes":[{"nodes":[0]}],"asset":{"version":"2.0","generator":"https://github.com/mikedh/trimesh"},"accessors":[{"componentType":5125,"type":"SCALAR","bufferView":0,"count":7710,"max":[4258],"min":[0]},{"componentType":5126,"type":"VEC3","byteOffset":0,"bufferView":1,"count":4259,"max":[7.717599868774414,3.7385640144348145,9.911600112915039],"min":[-7.717599868774414,-3.7385621070861816,-9.911601066589355]},{"componentType":5126,"type":"VEC2","byteOffset":0,"bufferView":3,"count":4259,"max":[0.9951670169830322,0.9902859926223755],"min":[0.0062060002237558365,0.005903000012040138]}],"meshes":[{"name":"Free-Scifi-Fighter.obj","extras":{"processed":true,"name":"Free-Scifi-Fighter.obj","node":"Free-Scifi-Fighter.obj"},"primitives":[{"attributes":{"POSITION":1,"TEXCOORD_0":2},"indices":0,"mode":4,"material":0}]}],"images":[{"bufferView":2,"mimeType":"image/jpeg"}],"textures":[{"source":0}],"materials":[{"pbrMetallicRoughness":{"baseColorTexture":{"index":0},"baseColorFactor":[0.5882352941176471,0.5882352941176471,0.5882352941176471,1.0],"roughnessFactor":0.6389431175575878},"doubleSided":false}],"nodes":[{"name":"world","children":[1]},{"name":"Free-Scifi-Fighter.obj","mesh":0}],"buffers":[{"uri":"gltf_buffer_0.bin","byteLength":30840},{"uri":"gltf_buffer_1.bin","byteLength":51108},{"uri":"gltf_buffer_2.bin","byteLength":413744},{"uri":"gltf_buffer_3.bin","byteLength":34072}],"bufferViews":[{"buffer":0,"byteOffset":0,"byteLength":30840},{"buffer":1,"byteOffset":0,"byteLength":51108},{"buffer":2,"byteOffset":0,"byteLength":413744},{"buffer":3,"byteOffset":0,"byteLength":34072}]}